<?xml version="1.0" encoding="utf-8"?>
<!-- Generator: Adobe Illustrator 24.3.0, SVG Export Plug-In . SVG Version: 6.00 Build 0)  -->
<svg version="1.1" id="Layer_1" xmlns="http://www.w3.org/2000/svg" xmlns:xlink="http://www.w3.org/1999/xlink" x="0px" y="0px"
	 viewBox="0 0 296.7 292.6" style="enable-background:new 0 0 296.7 292.6;" xml:space="preserve">
<style type="text/css">
	.st0{display:none;}
	.st1{opacity:0.18;fill:#333333;enable-background:new    ;}
	.st2{fill:url(#SVGID_1_);}
	.st3{fill:#FFFFFF;}
</style>
<g id="Background" class="st0">
</g>
<g id="Shadow">
	<circle class="st1" cx="150.3" cy="149.2" r="138.9"/>
</g>
<g id="Graphic_Elements">
	<g>
		
			<linearGradient id="SVGID_1_" gradientUnits="userSpaceOnUse" x1="44.11" y1="53.5599" x2="240.5301" y2="249.9801" gradientTransform="matrix(1 0 0 -1 0 294)">
			<stop  offset="0" style="stop-color:#0F437C"/>
			<stop  offset="1" style="stop-color:#1F63AC"/>
		</linearGradient>
		<circle class="st2" cx="142.3" cy="142.2" r="138.9"/>
		<path id="XMLID_3_" class="st3" d="M92.6,84.7c3.3-3.5,8.1-5.5,12.9-5.3c4.3,0.1,8.3,1.8,11.4,4.8l7.2,6.9
			c3.3,3.2,5.2,7.5,5.3,12.1s-1.6,9-4.7,12.3l-4.5,4.7l0,0c-2.2,2.3-4.9,3.9-7.9,4.7l-1.3,0.4c-0.8,0.2-1.6,0.8-1.9,1.6
			c-0.4,0.8-0.4,1.7,0,2.5l0.6,1.3c9.2,19.8,25.4,35.4,45.5,43.9l1.1,0.5c0.8,0.3,1.6,0.3,2.4,0c0.8-0.3,1.3-0.9,1.6-1.7l0.4-1.2
			c0.8-2.2,2.1-4.2,3.7-6l4.5-4.8c3.4-3.5,8.1-5.5,12.9-5.4c4.3,0.1,8.3,1.8,11.4,4.8l7.2,6.9c6.9,6.6,7.1,17.5,0.6,24.4l-4.5,4.8
			c-1.2,1.3-2.7,2.4-4.4,3.3c-4.3,2.5-9.8,3.5-15.6,2.8c-48.5-5.6-87.9-43.1-95.9-91.2c-1.7-10.1,2.2-17.4,5.2-19.8
			c0.1-0.1,0.2-0.2,0.3-0.3l0.2-0.2c0.1-0.1,0.2-0.2,0.2-0.3c0.4-0.6,0.9-1.2,1.4-1.7L92.6,84.7z"/>
	</g>
</g>
</svg>
